<svg xmlns="http://www.w3.org/2000/svg" version="1.1" xmlns:xlink="http://www.w3.org/1999/xlink" xmlns:svgjs="http://svgjs.dev/svgjs" viewBox="0 0 1422 800"><g stroke-width="3.5" stroke="hsl(32, 100%, 51%)" fill="none" stroke-linecap="round"><path d="M 0 2838 Q 355.5 -100 711 400 Q 1066.5 900 1422 2838" stroke-dasharray="0 1" opacity="0.05"></path><path d="M 0 2795 Q 355.5 -100 711 400 Q 1066.5 900 1422 2795" stroke-dasharray="1 0" opacity="0.06"></path><path d="M 0 2752 Q 355.5 -100 711 400 Q 1066.5 900 1422 2752" stroke-dasharray="1 2" opacity="0.08"></path><path d="M 0 2709 Q 355.5 -100 711 400 Q 1066.5 900 1422 2709" stroke-dasharray="0 2" opacity="0.09"></path><path d="M 0 2666 Q 355.5 -100 711 400 Q 1066.5 900 1422 2666" stroke-dasharray="2 1" opacity="0.11"></path><path d="M 0 2623 Q 355.5 -100 711 400 Q 1066.5 900 1422 2623" stroke-dasharray="2 0" opacity="0.12"></path><path d="M 0 2580 Q 355.5 -100 711 400 Q 1066.5 900 1422 2580" opacity="0.14"></path><path d="M 0 2537 Q 355.5 -100 711 400 Q 1066.5 900 1422 2537" stroke-dasharray="0 2" opacity="0.15"></path><path d="M 0 2494 Q 355.5 -100 711 400 Q 1066.5 900 1422 2494" stroke-dasharray="2 1" opacity="0.17"></path><path d="M 0 2451 Q 355.5 -100 711 400 Q 1066.5 900 1422 2451" stroke-dasharray="1 1" opacity="0.18"></path><path d="M 0 2408 Q 355.5 -100 711 400 Q 1066.5 900 1422 2408" stroke-dasharray="1 2" opacity="0.20"></path><path d="M 0 2365 Q 355.5 -100 711 400 Q 1066.5 900 1422 2365" stroke-dasharray="1 1" opacity="0.21"></path><path d="M 0 2322 Q 355.5 -100 711 400 Q 1066.5 900 1422 2322" stroke-dasharray="2 1" opacity="0.23"></path><path d="M 0 2279 Q 355.5 -100 711 400 Q 1066.5 900 1422 2279" stroke-dasharray="0 2" opacity="0.24"></path><path d="M 0 2236 Q 355.5 -100 711 400 Q 1066.5 900 1422 2236" stroke-dasharray="1 2" opacity="0.25"></path><path d="M 0 2193 Q 355.5 -100 711 400 Q 1066.5 900 1422 2193" stroke-dasharray="1 1" opacity="0.27"></path><path d="M 0 2150 Q 355.5 -100 711 400 Q 1066.5 900 1422 2150" stroke-dasharray="1 0" opacity="0.28"></path><path d="M 0 2107 Q 355.5 -100 711 400 Q 1066.5 900 1422 2107" stroke-dasharray="2 0" opacity="0.30"></path><path d="M 0 2064 Q 355.5 -100 711 400 Q 1066.5 900 1422 2064" stroke-dasharray="1 1" opacity="0.31"></path><path d="M 0 2021 Q 355.5 -100 711 400 Q 1066.5 900 1422 2021" stroke-dasharray="1 0" opacity="0.33"></path><path d="M 0 1978 Q 355.5 -100 711 400 Q 1066.5 900 1422 1978" stroke-dasharray="2 1" opacity="0.34"></path><path d="M 0 1935 Q 355.5 -100 711 400 Q 1066.5 900 1422 1935" opacity="0.36"></path><path d="M 0 1892 Q 355.5 -100 711 400 Q 1066.5 900 1422 1892" stroke-dasharray="0 1" opacity="0.37"></path><path d="M 0 1849 Q 355.5 -100 711 400 Q 1066.5 900 1422 1849" stroke-dasharray="1 1" opacity="0.39"></path><path d="M 0 1806 Q 355.5 -100 711 400 Q 1066.5 900 1422 1806" opacity="0.40"></path><path d="M 0 1763 Q 355.5 -100 711 400 Q 1066.5 900 1422 1763" stroke-dasharray="2 0" opacity="0.42"></path><path d="M 0 1720 Q 355.5 -100 711 400 Q 1066.5 900 1422 1720" stroke-dasharray="1 2" opacity="0.43"></path><path d="M 0 1677 Q 355.5 -100 711 400 Q 1066.5 900 1422 1677" stroke-dasharray="1 0" opacity="0.44"></path><path d="M 0 1634 Q 355.5 -100 711 400 Q 1066.5 900 1422 1634" stroke-dasharray="1 1" opacity="0.46"></path><path d="M 0 1591 Q 355.5 -100 711 400 Q 1066.5 900 1422 1591" opacity="0.47"></path><path d="M 0 1548 Q 355.5 -100 711 400 Q 1066.5 900 1422 1548" stroke-dasharray="0 1" opacity="0.49"></path><path d="M 0 1505 Q 355.5 -100 711 400 Q 1066.5 900 1422 1505" stroke-dasharray="1 0" opacity="0.50"></path><path d="M 0 1462 Q 355.5 -100 711 400 Q 1066.5 900 1422 1462" stroke-dasharray="1 1" opacity="0.52"></path><path d="M 0 1419 Q 355.5 -100 711 400 Q 1066.5 900 1422 1419" stroke-dasharray="1 1" opacity="0.53"></path><path d="M 0 1376 Q 355.5 -100 711 400 Q 1066.5 900 1422 1376" stroke-dasharray="1 1" opacity="0.55"></path><path d="M 0 1333 Q 355.5 -100 711 400 Q 1066.5 900 1422 1333" stroke-dasharray="0 1" opacity="0.56"></path><path d="M 0 1290 Q 355.5 -100 711 400 Q 1066.5 900 1422 1290" stroke-dasharray="1 0" opacity="0.58"></path><path d="M 0 1247 Q 355.5 -100 711 400 Q 1066.5 900 1422 1247" stroke-dasharray="1 0" opacity="0.59"></path><path d="M 0 1204 Q 355.5 -100 711 400 Q 1066.5 900 1422 1204" stroke-dasharray="0 2" opacity="0.61"></path><path d="M 0 1161 Q 355.5 -100 711 400 Q 1066.5 900 1422 1161" stroke-dasharray="0 2" opacity="0.62"></path><path d="M 0 1118 Q 355.5 -100 711 400 Q 1066.5 900 1422 1118" stroke-dasharray="1 1" opacity="0.63"></path><path d="M 0 1075 Q 355.5 -100 711 400 Q 1066.5 900 1422 1075" stroke-dasharray="2 0" opacity="0.65"></path><path d="M 0 1032 Q 355.5 -100 711 400 Q 1066.5 900 1422 1032" stroke-dasharray="1 1" opacity="0.66"></path><path d="M 0 989 Q 355.5 -100 711 400 Q 1066.5 900 1422 989" stroke-dasharray="1 1" opacity="0.68"></path><path d="M 0 946 Q 355.5 -100 711 400 Q 1066.5 900 1422 946" stroke-dasharray="0 2" opacity="0.69"></path><path d="M 0 903 Q 355.5 -100 711 400 Q 1066.5 900 1422 903" stroke-dasharray="2 1" opacity="0.71"></path><path d="M 0 860 Q 355.5 -100 711 400 Q 1066.5 900 1422 860" stroke-dasharray="1 1" opacity="0.72"></path><path d="M 0 817 Q 355.5 -100 711 400 Q 1066.5 900 1422 817" stroke-dasharray="0 2" opacity="0.74"></path><path d="M 0 774 Q 355.5 -100 711 400 Q 1066.5 900 1422 774" stroke-dasharray="1 2" opacity="0.75"></path><path d="M 0 731 Q 355.5 -100 711 400 Q 1066.5 900 1422 731" stroke-dasharray="1 1" opacity="0.77"></path><path d="M 0 688 Q 355.5 -100 711 400 Q 1066.5 900 1422 688" stroke-dasharray="0 1" opacity="0.78"></path><path d="M 0 645 Q 355.5 -100 711 400 Q 1066.5 900 1422 645" stroke-dasharray="1 0" opacity="0.80"></path><path d="M 0 602 Q 355.5 -100 711 400 Q 1066.5 900 1422 602" opacity="0.81"></path><path d="M 0 559 Q 355.5 -100 711 400 Q 1066.5 900 1422 559" stroke-dasharray="1 1" opacity="0.82"></path><path d="M 0 516 Q 355.5 -100 711 400 Q 1066.5 900 1422 516" stroke-dasharray="0 1" opacity="0.84"></path><path d="M 0 473 Q 355.5 -100 711 400 Q 1066.5 900 1422 473" stroke-dasharray="1 1" opacity="0.85"></path><path d="M 0 430 Q 355.5 -100 711 400 Q 1066.5 900 1422 430" stroke-dasharray="1 0" opacity="0.87"></path><path d="M 0 387 Q 355.5 -100 711 400 Q 1066.5 900 1422 387" stroke-dasharray="2 1" opacity="0.88"></path><path d="M 0 344 Q 355.5 -100 711 400 Q 1066.5 900 1422 344" opacity="0.90"></path><path d="M 0 301 Q 355.5 -100 711 400 Q 1066.5 900 1422 301" stroke-dasharray="2 1" opacity="0.91"></path><path d="M 0 258 Q 355.5 -100 711 400 Q 1066.5 900 1422 258" stroke-dasharray="2 2" opacity="0.93"></path><path d="M 0 215 Q 355.5 -100 711 400 Q 1066.5 900 1422 215" stroke-dasharray="1 1" opacity="0.94"></path><path d="M 0 172 Q 355.5 -100 711 400 Q 1066.5 900 1422 172" stroke-dasharray="2 1" opacity="0.96"></path><path d="M 0 129 Q 355.5 -100 711 400 Q 1066.5 900 1422 129" stroke-dasharray="1 1" opacity="0.97"></path><path d="M 0 86 Q 355.5 -100 711 400 Q 1066.5 900 1422 86" stroke-dasharray="1 1" opacity="0.99"></path></g></svg>